<?xml version="1.0" encoding="UTF-8"?>
<!-- Generated by Pixelmator Pro 3.7.1 -->
<svg width="3840" height="3840" viewBox="0 0 3840 3840" xmlns="http://www.w3.org/2000/svg">
    <path id="Oval" fill="#000000" fill-rule="evenodd" stroke="#000000" stroke-width="9" stroke-linecap="round" stroke-linejoin="round" d="M 1028 524.5 C 1028 283.427734 832.572266 88 591.5 88 C 350.427704 88 155 283.427734 155 524.5 C 155 765.572266 350.427704 961 591.5 961 C 832.572266 961 1028 765.572266 1028 524.5 Z M 297 727 C 297 738.045654 305.954315 747 317 747 L 867 747 C 878.045715 747 887 738.045654 887 727 L 887 321 C 887 309.954346 878.045715 301 867 301 L 317 301 C 305.954315 301 297 309.954346 297 321 L 297 727 Z"/>
    <path id="Triangle-3" fill="#000000" fill-rule="evenodd" stroke="#000000" stroke-width="9" stroke-linecap="round" stroke-linejoin="round" d="M 1127.999756 524 L 3670 524 L 3670 889 L 1124.383057 587.131836 C 1126.771973 566.586182 1128 545.686523 1128 524.5 C 1128 524.333252 1127.999756 524.166748 1127.999756 524 Z M 1014.239929 854.876465 L 3027.331299 2441.143311 L 2511.143311 2957.331299 L 925.184082 944.630371 C 958.27179 918.315674 988.180237 888.174561 1014.239929 854.876465 Z M 655.235107 1057.253662 L 957 3602 L 592 3602 L 592 1060.999756 C 613.394653 1060.980225 634.496155 1059.708496 655.235107 1057.253662 Z"/>
</svg>
